<?xml version="1.0" encoding="utf-8"?>
<!-- Svg Vector Icons : http://www.onlinewebfonts.com/icon -->
<!DOCTYPE svg PUBLIC "-//W3C//DTD SVG 1.1//EN" "http://www.w3.org/Graphics/SVG/1.1/DTD/svg11.dtd">
<svg version="1.1" xmlns="http://www.w3.org/2000/svg" xmlns:xlink="http://www.w3.org/1999/xlink" x="0px" y="0px" viewBox="0 0 1000 1000" enable-background="new 0 0 1000 1000" xml:space="preserve">
<metadata> Svg Vector Icons : http://www.onlinewebfonts.com/icon </metadata>
<g><path d="M990,984.1c-13.4-54.3-35.6-105.7-66.2-152.8c-30-46.2-67.1-87-110.4-121.3c-43.6-34.5-92.3-61.6-144.6-80.1c-10-3.6-20.3-6.9-30.5-9.7c32.1-15.4,61.8-36.3,87.7-62.3c60-60,93.2-139.8,93.2-224.7c0-84.9-33.1-164.7-93.2-224.7c-60-60-139.8-93.1-224.8-93.1c-84.9,0-164.7,33-224.7,93.1c-60,60-93.1,139.8-93.1,224.7c0,84.9,33.1,164.7,93.1,224.7c25.7,25.7,55,46.5,86.9,61.8c-10.9,3.1-21.7,6.4-32.3,10.3c-52.3,18.6-101,45.6-144.7,80.3c-43.2,34.4-80.4,75.3-110.4,121.6c-30.5,47.2-52.7,98.6-66.1,153"/></g>
</svg>